<?xml version="1.0" standalone="no"?>
<!DOCTYPE svg PUBLIC "-//W3C//DTD SVG 20010904//EN"
 "http://www.w3.org/TR/2001/REC-SVG-20010904/DTD/svg10.dtd">
<svg version="1.0" xmlns="http://www.w3.org/2000/svg"
 width="128.000000pt" height="128.000000pt" viewBox="0 0 128.000000 128.000000"
 preserveAspectRatio="xMidYMid meet">
<metadata>
Created by potrace 1.16, written by Peter Selinger 2001-2019
</metadata>
<g transform="translate(0.000000,128.000000) scale(0.100000,-0.100000)"
fill="#808080" stroke="none">
<path d="M215 1108 c-50 -27 -55 -44 -55 -203 l0 -150 80 -80 80 -80 108 108
107 107 105 -105 105 -105 107 107 108 108 80 -80 80 -80 0 202 0 201 -31 31
-31 31 -411 0 c-280 -1 -418 -4 -432 -12z"/>
<path d="M423 568 l-103 -103 -80 80 -80 80 0 -204 0 -203 29 -29 29 -29 422
0 422 0 29 29 29 29 0 149 0 148 -80 80 -80 80 -105 -105 -105 -105 -103 103
c-56 56 -107 102 -112 102 -6 0 -56 -46 -112 -102z"/>
</g>
</svg>
